<svg xmlns="http://www.w3.org/2000/svg" viewBox="0 0 400 300">
  <rect width="400" height="300" fill="#f7fafc"/>
  <text x="200" y="30" text-anchor="middle" font-family="Arial" font-size="20" font-weight="bold" fill="#2d3748">Monte Carlo π Estimation</text>
  
  <!-- Square -->
  <rect x="100" y="60" width="200" height="200" stroke="#4a5568" stroke-width="2" fill="none"/>
  
  <!-- Circle -->
  <circle cx="200" cy="160" r="100" stroke="#4a5568" stroke-width="2" fill="none"/>
  
  <!-- Random points -->
  <circle cx="150" cy="100" r="3" fill="#48bb78"/>
  <circle cx="180" cy="130" r="3" fill="#48bb78"/>
  <circle cx="220" cy="150" r="3" fill="#48bb78"/>
  <circle cx="190" cy="180" r="3" fill="#48bb78"/>
  <circle cx="210" cy="120" r="3" fill="#48bb78"/>
  <circle cx="170" cy="160" r="3" fill="#48bb78"/>
  <circle cx="230" cy="140" r="3" fill="#48bb78"/>
  <circle cx="200" cy="190" r="3" fill="#48bb78"/>
  <circle cx="160" cy="170" r="3" fill="#48bb78"/>
  <circle cx="240" cy="160" r="3" fill="#48bb78"/>
  
  <circle cx="110" cy="70" r="3" fill="#f56565"/>
  <circle cx="290" cy="80" r="3" fill="#f56565"/>
  <circle cx="280" cy="240" r="3" fill="#f56565"/>
  <circle cx="120" cy="230" r="3" fill="#f56565"/>
  <circle cx="105" cy="180" r="3" fill="#f56565"/>
  <circle cx="295" cy="190" r="3" fill="#f56565"/>
  
  <text x="200" y="280" text-anchor="middle" font-family="Arial" font-size="16" fill="#667eea">π ≈ 3.14159...</text>
</svg>